#!OML:ASF H:\Terrain\Patient Classification 1\Walking\liu\liu.ASF
:FULLY-SPECIFIED
:DEGREES
291
root 10.066200 16.861900 3.817000 5.939190 1.875430 3.457770
lowerback -3.057310 -1.855820 -2.382265
upperback -0.037471 -2.343795 1.039620
thorax 1.954120 -1.221015 2.185615
lowerneck -10.878400 -2.005860 -5.868250
upperneck 11.330950 -2.403825 5.803850
head 5.792200 -0.876450 2.767185
rclavicle -0.000000 0.000000
rhumerus -23.547600 3.786470 -41.477951
rradius 20.076099
rwrist -11.381200
rhand -14.728650 -11.528700
rfingers 3.562510
rthumb -1.396700 -26.509451
lclavicle -0.000000 0.000000
lhumerus -5.478750 -10.977750 43.084049
lradius 13.539550
lwrist 3.661980
lhand -7.993300 -12.036300
lfingers 3.562510
lthumb 5.106550 2.829740
rfemur -18.735701 0.190102 7.529100
rtibia 20.904600
rfoot -10.909450 -5.141650
rtoes -10.499700
lfemur -1.716775 2.134775 -14.766950
ltibia 9.127550
lfoot -9.331300 2.177590
ltoes -1.646680
292
root 10.065300 16.869400 3.963890 5.835410 2.206800 3.428100
lowerback -3.025035 -1.889750 -2.387610
upperback -0.079256 -2.390175 1.035470
thorax 1.897830 -1.241945 2.182575
lowerneck -10.763850 -2.026995 -5.760850
upperneck 11.535900 -2.436010 5.570700
head 5.842250 -0.914445 2.660060
rclavicle 0.000000 -0.000000
rhumerus -23.778549 3.687050 -41.514599
rradius 19.945650
rwrist -11.174000
rhand -14.554500 -11.469050
rfingers 3.562510
rthumb -1.228500 -26.451851
lclavicle 0.000000 -0.000000
lhumerus -5.492450 -11.450750 43.183949
lradius 13.825350
lwrist 4.207270
lhand -7.973250 -11.769150
lfingers 3.562510
lthumb 5.125900 3.095915
rfemur -18.755699 0.398044 7.386150
rtibia 19.968300
rfoot -10.694150 -4.638905
rtoes -9.105800
lfemur -1.126140 2.228915 -14.672600
ltibia 8.652600
lfoot -9.323850 1.928475
ltoes -1.522390
293
root 10.071500 16.881201 4.102030 5.790050 2.805690 3.464000
lowerback -2.951935 -1.962110 -2.366490
upperback -0.125993 -2.491325 1.027375
thorax 1.817155 -1.289015 2.157590
lowerneck -10.481900 -1.994645 -6.040650
upperneck 11.331700 -2.429965 6.001450
head 5.729500 -0.890960 2.867790
rclavicle 0.000000 0.000000
rhumerus -24.029751 3.790670 -41.655251
rradius 19.959600
rwrist -11.317850
rhand -14.891700 -12.679200
rfingers 3.562510
rthumb -1.554130 -27.657749
lclavicle 0.000000 0.000000
lhumerus -5.448300 -12.121900 43.271252
lradius 14.066150
lwrist 4.917775
lhand -7.879000 -11.424800
lfingers 3.562510
lthumb 5.216800 3.435755
rfemur -18.812050 0.488425 7.171950
rtibia 19.059099
rfoot -10.543350 -4.659515
rtoes -9.864250
lfemur -0.498210 2.288290 -14.620500
ltibia 8.054850
lfoot -9.182250 1.656960
ltoes -1.759195
294
root 10.069100 16.889500 4.232390 6.099280 2.987840 3.279060
lowerback -3.153200 -1.951255 -2.283635
upperback -0.116797 -2.475370 1.067035
thorax 1.934290 -1.282540 2.140815
lowerneck -10.494600 -2.032570 -6.109850
upperneck 11.229700 -2.477485 6.100300
head 5.705700 -0.905630 2.906235
rclavicle -0.000000 0.000000
rhumerus -24.051250 3.885255 -41.728748
rradius 19.939449
rwrist -11.504300
rhand -15.606850 -15.021750
rfingers 3.562510
rthumb -2.244770 -29.987949
lclavicle -0.000000 0.000000
lhumerus -5.234550 -12.667600 43.323101
lradius 14.342550
lwrist 5.456750
lhand -7.785800 -11.183800
lfingers 3.562510
lthumb 5.306700 3.672205
rfemur -19.157551 0.981950 7.016950
rtibia 18.180050
rfoot -10.741500 -4.866335
rtoes -10.582650
lfemur -0.019846 2.314265 -14.467750
ltibia 7.249700
lfoot -8.913550 1.594060
ltoes -1.663835
295
root 10.064100 16.885500 4.374500 6.327410 3.194150 3.456230
lowerback -3.399920 -1.975895 -2.427535
upperback -0.070899 -2.486000 1.055320
thorax 2.133435 -1.295520 2.190085
lowerneck -10.905100 -2.131115 -5.831950
upperneck 11.459300 -2.594425 5.771150
head 5.871650 -0.962960 2.721800
rclavicle 0.000000 0.000000
rhumerus -24.031900 3.911550 -41.757500
rradius 19.789450
rwrist -11.432900
rhand -15.635250 -15.003550
rfingers 3.562510
rthumb -2.272180 -29.969200
lclavicle 0.000000 0.000000
lhumerus -5.035400 -13.097250 43.321251
lradius 14.663300
lwrist 5.869500
lhand -7.761850 -11.112400
lfingers 3.562510
lthumb 5.329850 3.742385
rfemur -19.447500 1.399930 6.638250
rtibia 17.371300
rfoot -10.897250 -4.798710
rtoes -10.488850
lfemur 0.599965 2.196015 -14.508450
ltibia 6.313150
lfoot -8.677800 1.543720
ltoes -0.722290
296
root 10.066900 16.875500 4.528800 6.473970 3.565500 3.854030
lowerback -3.583360 -2.043725 -2.628490
upperback -0.053955 -2.548865 0.999685
thorax 2.274395 -1.333550 2.223590
lowerneck -10.633450 -2.145345 -5.986300
upperneck 11.290550 -2.610500 5.887100
head 5.765250 -0.976735 2.782725
rclavicle 0.000000 0.000000
rhumerus -24.084400 3.885605 -41.792049
rradius 19.602249
rwrist -11.276800
rhand -15.087350 -12.123150
rfingers 3.562510
rthumb -1.743075 -27.098801
lclavicle 0.000000 0.000000
lhumerus -4.914850 -13.522400 43.359600
lradius 14.985950
lwrist 6.494450
lhand -7.620050 -10.883450
lfingers 3.562510
lthumb 5.466600 3.964235
rfemur -19.677200 1.706140 6.106950
rtibia 16.649050
rfoot -11.004350 -4.686800
rtoes -10.344800
lfemur 1.388585 1.991710 -14.667750
ltibia 5.197300
lfoot -8.391600 1.465700
ltoes 0.416257
297
root 10.069900 16.863800 4.673010 6.525390 3.858640 4.296760
lowerback -3.595990 -2.095485 -2.856830
upperback -0.084111 -2.596960 0.963755
thorax 2.273140 -1.361155 2.307570
lowerneck -10.663950 -2.220790 -6.073250
upperneck 11.435050 -2.681790 5.832700
head 5.837350 -1.023280 2.770955
rclavicle 0.000000 0.000000
rhumerus -24.126801 3.811790 -41.717949
rradius 19.336750
rwrist -11.043600
rhand -14.995850 -10.694950
rfingers 3.562510
rthumb -1.654740 -25.671949
lclavicle 0.000000 0.000000
lhumerus -4.867950 -13.864750 43.514450
lradius 15.252850
lwrist 7.001800
lhand -7.462400 -10.545000
lfingers 3.562510
lthumb 5.618650 4.294520
rfemur -19.881201 2.067165 5.520600
rtibia 16.003000
rfoot -11.188300 -4.593805
rtoes -10.837550
lfemur 2.453105 1.966935 -14.859400
ltibia 3.688470
lfoot -7.918450 1.348095
ltoes 0.270257
298
root 10.062800 16.853500 4.815760 6.442740 4.252280 4.777500
lowerback -3.522575 -2.157260 -3.174610
upperback -0.093916 -2.656565 0.933910
thorax 2.256060 -1.396705 2.451345
lowerneck -10.599050 -2.237495 -6.105550
upperneck 11.462100 -2.692795 5.791350
head 5.836200 -1.038190 2.759375
rclavicle -0.000000 -0.000000
rhumerus -24.105101 3.598025 -41.551498
rradius 18.970551
rwrist -10.649850
rhand -15.388250 -12.108550
rfingers 3.562510
rthumb -2.033670 -27.079000
lclavicle -0.000000 -0.000000
lhumerus -4.868500 -14.401000 43.642750
lradius 15.567450
lwrist 7.509800
lhand -7.374100 -10.406550
lfingers 3.562510
lthumb 5.703800 4.428305
rfemur -19.974051 2.599450 4.840790
rtibia 15.373850
rfoot -11.387450 -4.766000
rtoes -10.966400
lfemur 3.951695 1.901550 -15.044350
ltibia 1.513865
lfoot -7.094800 1.375150
ltoes -0.761965
299
root 10.049100 16.858299 4.961490 6.511290 4.907910 4.644670
lowerback -3.549815 -2.235835 -3.183465
upperback -0.122943 -2.760805 0.966820
thorax 2.259400 -1.448330 2.475950
lowerneck -10.315250 -2.195015 -6.136050
upperneck 11.273750 -2.667725 5.890600
head 5.709900 -1.024520 2.798600
rclavicle -0.000000 -0.000000
rhumerus -24.104300 3.381975 -41.525700
rradius 18.662951
rwrist -10.404500
rhand -15.836100 -13.456000
rfingers 3.562510
rthumb -2.466130 -28.417299
lclavicle -0.000000 -0.000000
lhumerus -4.932615 -14.982350 43.732750
lradius 15.945800
lwrist 8.051250
lhand -7.271850 -10.404250
lfingers 3.562510
lthumb 5.802400 4.425100
rfemur -20.086451 3.389900 4.359125
rtibia 14.752750
rfoot -11.674100 -5.237800
rtoes -9.028050
lfemur 4.980880 1.718585 -14.863600
ltibia -0.000000
lfoot -6.495100 1.387100
ltoes -1.607810
300
root 10.044600 16.869801 5.106130 6.709070 5.382740 4.207850
lowerback -3.646290 -2.275120 -2.953395
upperback -0.193101 -2.828910 1.010715
thorax 2.230985 -1.474950 2.380195
lowerneck -10.075600 -2.186475 -6.146400
upperneck 11.163150 -2.690860 5.960300
head 5.627700 -1.034010 2.818195
rclavicle -0.000000 -0.000000
rhumerus -24.178551 3.229440 -41.567402
rradius 18.440750
rwrist -10.194550
rhand -15.836750 -13.610150
rfingers 3.562510
rthumb -2.466725 -28.571449
lclavicle -0.000000 -0.000000
lhumerus -5.063050 -15.535350 43.819450
lradius 16.364100
lwrist 8.597000
lhand -7.271000 -10.256200
lfingers 3.562510
lthumb 5.803250 4.573100
rfemur -20.307199 4.282535 3.973225
rtibia 14.199100
rfoot -12.048100 -5.651300
rtoes -7.297900
lfemur 5.131500 1.627195 -14.537800
ltibia -0.000000
lfoot -6.616350 1.378810
ltoes -2.094535
